<svg xmlns="http://www.w3.org/2000/svg" width="24.132" height="23.993" viewBox="0 0 24.132 23.993"><defs><style>.a{fill:#003e7e;stroke:#003e7e;}</style></defs><g transform="translate(0.507 0.546)"><path class="a" d="M23.571,28.263h-.492a16.265,16.265,0,0,1-3.508-.8,20.322,20.322,0,0,1-8.309-4.985,20.322,20.322,0,0,1-4.985-8.309,17.1,17.1,0,0,1-.8-3.508V10.6A4.771,4.771,0,0,1,6.769,6.722a4.858,4.858,0,0,1,4.924-1.169A1.494,1.494,0,0,1,12.554,6.6l1.108,6.093a1.351,1.351,0,0,1-.431,1.231,6.1,6.1,0,0,1-1.046.677v.062A18.836,18.836,0,0,0,15.139,18.6l.062.062a17.269,17.269,0,0,0,4,2.954l.739-1.108a1.3,1.3,0,0,1,1.231-.431l6.093,1.108a1.207,1.207,0,0,1,.985.8,4.731,4.731,0,0,1-1.169,4.924A5.575,5.575,0,0,1,23.571,28.263Zm-.431-1.231h0a3.36,3.36,0,0,0,2.893-1.046,3.477,3.477,0,0,0,.862-3.631L20.8,21.247a2.172,2.172,0,0,0-.492.8h0a1.12,1.12,0,0,1-.8.677,1.241,1.241,0,0,1-1.046-.123,19.093,19.093,0,0,1-4.185-3.139l-.062-.062-.062-.062a19.093,19.093,0,0,1-3.139-4.185,1.241,1.241,0,0,1-.123-1.046,1.456,1.456,0,0,1,.677-.8,3.489,3.489,0,0,0,.8-.492L11.323,6.783a3.557,3.557,0,0,0-3.693.8,3.756,3.756,0,0,0-1.046,2.893v.062h0a19.613,19.613,0,0,0,.8,3.2A18.692,18.692,0,0,0,19.878,26.232,14.136,14.136,0,0,0,23.14,27.032Z" transform="translate(-5.438 -5.316)"/></g></svg>