<svg xmlns="http://www.w3.org/2000/svg" width="24.889" height="24" viewBox="0 0 24.889 24"><defs><style>.a{fill:none;}.b,.c{stroke:none;}.c{fill:#3d3c3e;}</style></defs><g class="a"><path class="b" d="M11.356,2.35a1.2,1.2,0,0,1,2.178,0L15.9,7.455a1.2,1.2,0,0,0,.937.686l5.547.707a1.2,1.2,0,0,1,.675,2.06l-4.1,3.9a1.2,1.2,0,0,0-.352,1.092l1.053,5.58A1.2,1.2,0,0,1,17.9,22.75l-4.866-2.716a1.2,1.2,0,0,0-1.17,0L6.993,22.75a1.2,1.2,0,0,1-1.764-1.27L6.283,15.9a1.2,1.2,0,0,0-.352-1.092l-4.1-3.9a1.2,1.2,0,0,1,.675-2.06l5.547-.707a1.2,1.2,0,0,0,.937-.686Z"/><path class="c" d="M 12.44446277618408 4.519203186035156 L 10.71397876739502 8.253749847412109 C 10.26276874542236 9.227499961853027 9.357809066772461 9.889850616455078 8.293209075927734 10.02554035186768 L 4.207393646240234 10.54629611968994 L 7.23969841003418 13.42987060546875 C 8.005489349365234 14.15812015533447 8.345649719238281 15.21286010742188 8.149639129638672 16.25131988525391 L 7.373802185058594 20.36126708984375 L 10.93347930908203 18.37421035766602 C 11.39424896240234 18.11700057983398 11.91673851013184 17.98105049133301 12.44444942474365 17.98105049133301 C 12.9721794128418 17.98105049133301 13.49468898773193 18.11701011657715 13.9554386138916 18.37421989440918 L 17.51511573791504 20.36126518249512 L 16.73927879333496 16.25130081176758 C 16.54327011108398 15.21286010742188 16.8834285736084 14.15812015533447 17.64922904968262 13.42986011505127 L 20.68151092529297 10.54629325866699 L 16.59569931030273 10.02554035186768 C 15.53110885620117 9.889850616455078 14.62614917755127 9.227499961853027 14.17493915557861 8.253749847412109 L 12.44446277618408 4.519203186035156 M 12.44445896148682 1.654230117797852 C 12.88143157958984 1.654230117797852 13.31840419769287 1.88606071472168 13.53324890136719 2.349720001220703 L 15.89885902404785 7.454929351806641 C 16.07243919372559 7.829530715942383 16.42638778686523 8.088590621948242 16.83592987060547 8.140790939331055 L 22.38332939147949 8.847829818725586 C 23.38645935058594 8.975689888000488 23.79134941101074 10.2109203338623 23.05853843688965 10.907790184021 L 18.95854949951172 14.80670070648193 C 18.66338920593262 15.08738994598389 18.53075790405273 15.49863052368164 18.60630798339844 15.89888000488281 L 19.65971946716309 21.4792594909668 C 19.80785751342773 22.2640266418457 19.18471527099609 22.90483665466309 18.48015594482422 22.90483665466309 C 18.28666687011719 22.90483665466309 18.0871524810791 22.85655975341797 17.89564895629883 22.74966049194336 L 13.02935886383057 20.03325080871582 C 12.84759426116943 19.93178558349609 12.64601898193359 19.88105201721191 12.44445133209229 19.88105201721191 C 12.24288368225098 19.88105201721191 12.0413236618042 19.9317798614502 11.85955905914307 20.03324127197266 L 6.993268966674805 22.74966049194336 C 6.80181884765625 22.85652923583984 6.602199554443359 22.90483665466309 6.408761978149414 22.90483665466309 C 5.704135894775391 22.90483665466309 5.081048965454102 22.26408767700195 5.229198455810547 21.4792594909668 L 6.282608032226562 15.89888000488281 C 6.358158111572266 15.49863052368164 6.225528717041016 15.08738994598389 5.930368423461914 14.80670070648193 L 1.830368041992188 10.907790184021 C 1.097568511962891 10.2109203338623 1.502458572387695 8.975689888000488 2.505588531494141 8.847829818725586 L 8.052988052368164 8.140790939331055 C 8.462528228759766 8.088590621948242 8.816478729248047 7.829530715942383 8.990058898925781 7.454929351806641 L 11.35566902160645 2.349720001220703 C 11.57051372528076 1.88606071472168 12.00748634338379 1.654230117797852 12.44445896148682 1.654230117797852 Z"/></g></svg>