<svg xmlns="http://www.w3.org/2000/svg" xmlns:xlink="http://www.w3.org/1999/xlink" viewBox="0 0 279.268 40.556"><defs><style>.a,.g{isolation:isolate;}.b{fill:#424242;}.c{fill:#003e7e;}.d{fill:#cd202c;}.e{fill:#333;}.f{opacity:0.56;fill:url(#a);}.g{opacity:0.62;mix-blend-mode:lighten;fill:url(#b);}.h{fill:#fff;}</style><radialGradient id="a" cx="0.493" cy="0.016" r="0.979" gradientTransform="translate(0)" gradientUnits="objectBoundingBox"><stop offset="0" stop-color="#fff"/><stop offset="0.5" stop-color="#1d1d1b"/></radialGradient><linearGradient id="b" x1="0.5" y1="0.011" x2="0.5" y2="1.095" gradientUnits="objectBoundingBox"><stop offset="0" stop-color="#c6c6c5"/><stop offset="1" stop-color="#575756"/></linearGradient></defs><g class="a" transform="translate(-34.88 -15)"><g transform="translate(34.88 15)"><path class="b" d="M534.947,314.16v6.255H533.6V314.16H531.83v-.8h4.9v.8Z" transform="translate(-479.794 -282.118)"/><path class="b" d="M595.271,311.93v-3.62a1.152,1.152,0,0,0-1.292-1.292,2.8,2.8,0,0,0-1.137.225v4.687H591.56v-8.05h1.282v2.708a3.681,3.681,0,0,1,1.456-.3c1.457,0,2.266.687,2.266,2.02v3.62Z" transform="translate(-533.269 -273.631)"/><path class="b" d="M654.342,330.158a1.738,1.738,0,0,0,1.918,1.63,4.509,4.509,0,0,0,1.682-.314l.3.749a5.5,5.5,0,0,1-2.133.39,2.723,2.723,0,0,1-3.046-2.912,2.611,2.611,0,0,1,2.789-2.861c1.682,0,2.618.954,2.618,2.79Zm1.446-2.618c-.892,0-1.538.676-1.538,1.937v.062l2.954-.379c0-1.094-.534-1.617-1.416-1.617Z" transform="translate(-588.33 -294.187)"/><path class="b" d="M753,320.558c-1.651,0-2.7-.838-2.7-2.358v-4.817h1.344v4.83a1.41,1.41,0,1,0,2.82,0V313.38H755.7V318.2C755.7,319.717,754.649,320.558,753,320.558Z" transform="translate(-675.387 -282.136)"/><path class="b" d="M823.213,320.436l-2.8-3.65h-.021v3.65H819.05V313.38h1.344v3.241h.021l2.8-3.241h1.457l-2.995,3.241,3.141,3.815Z" transform="translate(-736.938 -282.136)"/><path class="b" d="M882.268,305.829h-.738l.954-2.482a.846.846,0,0,1,.7-.359.509.509,0,0,1,.524.359Z" transform="translate(-792.876 -272.832)"/><path class="b" d="M902.475,332.538a4.428,4.428,0,0,1-1.845-.379l.338-.738a3.173,3.173,0,0,0,1.361.314c.733,0,1.138-.328,1.138-.85,0-1.21-2.7-.8-2.7-2.522,0-.954.861-1.6,2.094-1.6a3.957,3.957,0,0,1,1.775.379l-.339.677a2.713,2.713,0,0,0-1.2-.288c-.637,0-1.047.3-1.047.8,0,1.159,2.748.779,2.748,2.513C904.8,331.852,903.891,332.538,902.475,332.538Z" transform="translate(-809.976 -294.117)"/><path class="b" d="M981.7,314.16v6.255h-1.344V314.16H978.58v-.8h4.9v.8Z" transform="translate(-879.764 -282.118)"/><path class="b" d="M1031.958,332.573a2.89,2.89,0,1,1,2.749-2.891A2.643,2.643,0,0,1,1031.958,332.573Zm0-5.034c-1.025,0-1.436.942-1.436,2.122s.41,2.123,1.436,2.123,1.435-.942,1.435-2.123S1032.984,327.538,1031.958,327.538Z" transform="translate(-925.092 -294.151)"/><path class="b" d="M1096.1,332.573a2.89,2.89,0,1,1,2.748-2.891A2.644,2.644,0,0,1,1096.1,332.573Zm0-5.034c-1.026,0-1.436.942-1.436,2.122s.41,2.123,1.436,2.123,1.436-.942,1.436-2.123S1097.124,327.538,1096.1,327.538Z" transform="translate(-982.516 -294.151)"/><path class="b" d="M1160,311.93v-8.05h1.282v8.05Z" transform="translate(-1042.187 -273.631)"/><path class="b" d="M1220.075,332.545c-1.6,0-2.645-.512-2.645-1.682,0-1.487,1.7-1.876,3.712-2.041v-.307c0-.733-.482-.995-1.333-.995a4.877,4.877,0,0,0-1.7.314l-.287-.687a5.968,5.968,0,0,1,2.133-.379c1.487,0,2.408.533,2.408,1.9v3.5A6.09,6.09,0,0,1,1220.075,332.545Zm1.067-3.158c-1.487.143-2.482.379-2.482,1.446,0,.708.574,1.025,1.457,1.025a2.81,2.81,0,0,0,1.025-.163Z" transform="translate(-1093.604 -294.123)"/><path class="b" d="M1284.012,332.45v-3.63c0-.882-.482-1.271-1.384-1.271a3.173,3.173,0,0,0-1.047.163v4.738H1280.3V327.19a6.587,6.587,0,0,1,2.348-.389c1.662,0,2.657.584,2.657,2.02v3.63Z" transform="translate(-1149.89 -294.151)"/><path class="b" d="M1344.8,312.053c-1.917,0-3-1.025-3-2.861a2.7,2.7,0,0,1,2.861-2.892,4.533,4.533,0,0,1,1.067.124V303.88h1.282v7.794A5.791,5.791,0,0,1,1344.8,312.053Zm.923-4.973a3.615,3.615,0,0,0-.78-.092c-1.25,0-1.835.838-1.835,2.184,0,1.312.513,2.123,1.733,2.123a2.4,2.4,0,0,0,.883-.143Z" transform="translate(-1204.951 -273.631)"/><path class="b" d="M1439.24,320.436V313.38h4.059v.8h-2.722v2.236H1443v.789h-2.42v2.42h2.722v.81Z" transform="translate(-1292.188 -282.136)"/><path class="b" d="M1492.817,334.651v-2.328a3.505,3.505,0,0,1-1.322.237,2.527,2.527,0,0,1-2.6-2.749,2.8,2.8,0,0,1,3.117-3.015,5.6,5.6,0,0,1,2.094.379v7.475Zm0-6.983a2.278,2.278,0,0,0-.871-.154c-1.159,0-1.744.838-1.744,2.226,0,1.312.544,2.082,1.662,2.082a2.381,2.381,0,0,0,.953-.185Z" transform="translate(-1336.639 -294.147)"/><path class="b" d="M1556.994,333.647c-1.6,0-2.574-.543-2.574-2.03V328h1.282v3.641c0,.83.472,1.2,1.3,1.2a2.646,2.646,0,0,0,1.025-.175V328h1.282v5.261A6.336,6.336,0,0,1,1556.994,333.647Z" transform="translate(-1395.307 -295.225)"/><path class="b" d="M1617.139,308.341a.627.627,0,1,1,.748-.616A.7.7,0,0,1,1617.139,308.341Zm-.646,6.481V309.3h1.292v5.528Z" transform="translate(-1450.788 -276.523)"/><path class="b" d="M1648.3,332.545a4.536,4.536,0,0,1-1.026-.113v2.215H1646v-7.475a5.957,5.957,0,0,1,2.2-.379c1.917,0,3,1.057,3,2.809A2.7,2.7,0,0,1,1648.3,332.545Zm-.154-5.026a2.3,2.3,0,0,0-.872.133v4.072a3.119,3.119,0,0,0,.78.093c1.19,0,1.836-.8,1.836-2.175,0-1.323-.492-2.123-1.744-2.123Z" transform="translate(-1477.298 -294.143)"/><path class="b" d="M1716.664,332.446v-3.7a1.091,1.091,0,0,0-1.23-1.2,1.554,1.554,0,0,0-1.108.451v4.45h-1.257v-3.907c0-.628-.441-.995-1.282-.995a3.163,3.163,0,0,0-1.066.163v4.738h-1.251v-5.261a6.369,6.369,0,0,1,2.266-.39,3.337,3.337,0,0,0,3.949,0c1.4,0,2.245.7,2.245,1.949v3.7Z" transform="translate(-1534.122 -294.147)"/><path class="b" d="M1805.2,330.158a1.738,1.738,0,0,0,1.918,1.63,4.508,4.508,0,0,0,1.682-.314l.3.749a5.5,5.5,0,0,1-2.133.39,2.723,2.723,0,0,1-3.046-2.912,2.611,2.611,0,0,1,2.79-2.861c1.682,0,2.618.954,2.618,2.79Zm1.446-2.618c-.892,0-1.538.676-1.538,1.937v.062l2.954-.379c0-1.094-.534-1.617-1.412-1.617Z" transform="translate(-1618.682 -294.187)"/><path class="b" d="M1872.943,332.45v-3.63c0-.882-.482-1.271-1.384-1.271a3.171,3.171,0,0,0-1.047.163v4.738h-1.281V327.19a6.587,6.587,0,0,1,2.349-.389c1.66,0,2.655.584,2.655,2.02v3.63Z" transform="translate(-1677.153 -294.151)"/><path class="b" d="M1931.381,320.2c-1.256,0-1.733-.733-1.733-1.559v-3.351h-.838v-.733h.838v-1.239l1.282-.328v1.571h1.17v.733h-1.17v3.374a.731.731,0,0,0,.821.717,1.342,1.342,0,0,0,.349-.051v.749A2.085,2.085,0,0,1,1931.381,320.2Z" transform="translate(-1730.494 -281.787)"/><path class="b" d="M2009.125,320.436v-3.23h-2.9v3.23h-1.342V313.38h1.342v3.037h2.9V313.38h1.353v7.055Z" transform="translate(-1798.599 -282.136)"/><path class="b" d="M2074.959,308.341a.628.628,0,1,1,.749-.616A.7.7,0,0,1,2074.959,308.341Zm-.646,6.481V309.3h1.292v5.528Z" transform="translate(-1860.669 -276.523)"/><path class="b" d="M2106.689,327.658a3.051,3.051,0,0,0-.759-.1,2.144,2.144,0,0,0-.838.143v4.748h-1.281v-5.266a7.069,7.069,0,0,1,2.543-.379,5.6,5.6,0,0,1,.614.03Z" transform="translate(-1887.17 -294.15)"/><path class="b" d="M2141.692,330.158a1.737,1.737,0,0,0,1.917,1.63,4.511,4.511,0,0,0,1.682-.314l.3.749a5.492,5.492,0,0,1-2.133.39,2.722,2.722,0,0,1-3.044-2.912,2.61,2.61,0,0,1,2.788-2.861c1.682,0,2.618.954,2.618,2.79Zm1.446-2.618c-.891,0-1.538.676-1.538,1.937v.062l2.956-.379c0-1.094-.536-1.617-1.418-1.617Z" transform="translate(-1919.938 -294.187)"/><path class="b" d="M2236.234,319.5a5.464,5.464,0,0,1-2.113-.379l.339-.82a4.217,4.217,0,0,0,1.579.307c.933,0,1.5-.409,1.5-1.117,0-1.571-3.24-1.076-3.24-3.3,0-1.17,1-1.99,2.553-1.99a4.33,4.33,0,0,1,1.885.379l-.328.769a3.057,3.057,0,0,0-1.405-.3c-.852,0-1.361.419-1.361,1.047,0,1.538,3.322.954,3.322,3.3C2238.961,318.658,2237.877,319.5,2236.234,319.5Z" transform="translate(-2003.835 -281.077)"/><path class="b" d="M2296.656,332.545a4.533,4.533,0,0,1-1.025-.113v2.215h-1.281v-7.475a5.953,5.953,0,0,1,2.2-.379c1.917,0,3,1.057,3,2.809A2.7,2.7,0,0,1,2296.656,332.545Zm-.153-5.026a2.3,2.3,0,0,0-.872.133v4.072a3.114,3.114,0,0,0,.779.093c1.19,0,1.836-.8,1.836-2.175,0-1.323-.492-2.123-1.743-2.123Z" transform="translate(-2057.758 -294.143)"/><path class="b" d="M2357.042,330.158a1.737,1.737,0,0,0,1.918,1.63,4.511,4.511,0,0,0,1.682-.314l.3.749a5.5,5.5,0,0,1-2.133.39,2.723,2.723,0,0,1-3.046-2.912,2.611,2.611,0,0,1,2.79-2.861c1.682,0,2.618.954,2.618,2.79Zm1.446-2.618c-.892,0-1.538.676-1.538,1.937v.062l2.954-.379c0-1.094-.535-1.617-1.417-1.617Z" transform="translate(-2112.737 -294.187)"/><path class="b" d="M2421.646,332.573a2.9,2.9,0,0,1,0-5.773,3,3,0,0,1,1.559.379l-.3.678a1.8,1.8,0,0,0-1.015-.267c-1.036,0-1.549.923-1.549,2.071s.513,2.082,1.549,2.082a1.779,1.779,0,0,0,1-.266l.314.717A3,3,0,0,1,2421.646,332.573Z" transform="translate(-2169.364 -294.151)"/><path class="b" d="M2471.759,308.341a.628.628,0,1,1,.749-.616A.7.7,0,0,1,2471.759,308.341Zm-.645,6.481V309.3h1.292v5.528Z" transform="translate(-2215.92 -276.523)"/><path class="b" d="M2500.785,332.545c-1.6,0-2.645-.512-2.645-1.682,0-1.487,1.7-1.876,3.712-2.041v-.307c0-.733-.482-.995-1.333-.995a4.877,4.877,0,0,0-1.7.314l-.287-.687a5.967,5.967,0,0,1,2.133-.379c1.487,0,2.409.533,2.409,1.9v3.5A6.079,6.079,0,0,1,2500.785,332.545Zm1.067-3.158c-1.487.143-2.481.379-2.481,1.446,0,.708.573,1.025,1.456,1.025a2.809,2.809,0,0,0,1.025-.163Z" transform="translate(-2240.209 -294.123)"/><path class="b" d="M2561.5,311.93v-8.05h1.282v8.05Z" transform="translate(-2296.935 -273.631)"/><path class="b" d="M2590.259,308.341a.627.627,0,1,1,.748-.616A.7.7,0,0,1,2590.259,308.341Zm-.646,6.481V309.3h1.292v5.528Z" transform="translate(-2322.011 -276.523)"/><path class="b" d="M2617.887,332.538a4.439,4.439,0,0,1-1.847-.379l.34-.738a3.171,3.171,0,0,0,1.362.314c.727,0,1.138-.328,1.138-.85,0-1.21-2.7-.8-2.7-2.523,0-.954.861-1.6,2.094-1.6a3.955,3.955,0,0,1,1.78.379l-.339.678a2.713,2.713,0,0,0-1.2-.288c-.637,0-1.047.3-1.047.8,0,1.159,2.747.779,2.747,2.513C2620.214,331.851,2619.3,332.538,2617.887,332.538Z" transform="translate(-2345.763 -294.116)"/><path class="b" d="M2668.3,320.208c-1.262,0-1.733-.733-1.733-1.559V315.3h-.838v-.733h.838v-1.239l1.285-.327v1.571h1.169v.733h-1.169v3.374a.731.731,0,0,0,.82.717,1.343,1.343,0,0,0,.349-.051v.749A2.084,2.084,0,0,1,2668.3,320.208Z" transform="translate(-2390.25 -281.796)"/><path class="c" d="M537.917,89.975a17.509,17.509,0,0,1-5.987-.9V74.028a16.367,16.367,0,0,1,5.774-.9c4.851,0,7.194,1.78,7.194,4.354,0,2.154-1.7,3.246-3.383,3.6v.047c1.964.473,3.952,1.8,3.952,4.047C545.466,88.441,542.626,89.975,537.917,89.975Zm-.142-14.715a5.946,5.946,0,0,0-1.822.237v4.851h1.136c2.84,0,3.786-.9,3.786-2.627C540.875,76.064,539.976,75.26,537.775,75.26Zm-.707,6.839h-1.115V87.47a5.679,5.679,0,0,0,1.916.261c2.083,0,3.408-.757,3.408-2.674C541.278,83.092,540.07,82.1,537.068,82.1Z" transform="translate(-479.883 -67.043)"/><path class="c" d="M686.338,109.334a5.708,5.708,0,0,0-1.8-.284,3.945,3.945,0,0,0-1.491.237v10.555h-4V107.7a18.1,18.1,0,0,1,6.223-.9c.64,0,1.373.047,1.823.094Z" transform="translate(-611.598 -97.188)"/><path class="c" d="M763.139,120.106c-4.047,0-6.579-1.23-6.579-4,0-3.383,3.979-4.26,8.566-4.638v-.587c0-1.373-.994-1.87-2.745-1.87a12.145,12.145,0,0,0-4.047.733l-.852-2.059a16.113,16.113,0,0,1,5.445-.9c3.716,0,5.987,1.326,5.987,4.662v7.762A16.344,16.344,0,0,1,763.139,120.106Zm1.99-7.005c-2.816.261-4.733.687-4.733,2.864,0,1.466,1.112,2.106,2.887,2.106a5.3,5.3,0,0,0,1.846-.284Z" transform="translate(-680.992 -97.174)"/><path class="c" d="M904.921,119.84v-8.377c0-1.657-.875-2.408-2.6-2.408a5.946,5.946,0,0,0-1.869.28V119.84h-4V107.723a17.876,17.876,0,0,1,5.939-.922c4.165,0,6.532,1.4,6.532,4.686v8.354Z" transform="translate(-806.234 -97.188)"/><path class="c" d="M1040.229,72.776c-4.543,0-7.289-2.225-7.289-6.626a6.242,6.242,0,0,1,6.626-6.65,11.053,11.053,0,0,1,2.343.237V53.92h3.979V71.881A16.054,16.054,0,0,1,1040.229,72.776Zm1.675-11.1a6.6,6.6,0,0,0-1.42-.141c-2.343,0-3.479,1.609-3.479,4.519,0,2.864.995,4.449,3.313,4.449a4.761,4.761,0,0,0,1.586-.237Z" transform="translate(-928.432 -49.845)"/><path class="c" d="M1180.7,120.083c-4.307,0-6.745-2.793-6.745-6.673s2.438-6.65,6.745-6.65,6.744,2.769,6.744,6.65S1185.011,120.083,1180.7,120.083Zm0-11.122c-1.917,0-2.675,1.869-2.675,4.378s.757,4.378,2.675,4.378,2.674-1.87,2.674-4.378-.757-4.374-2.674-4.374Z" transform="translate(-1054.685 -97.152)"/><path class="c" d="M1328.651,119.84v-8.377c0-1.657-.875-2.408-2.6-2.408a5.946,5.946,0,0,0-1.869.284v10.5h-4V107.723a17.876,17.876,0,0,1,5.939-.922c4.166,0,6.532,1.4,6.532,4.686v8.354Z" transform="translate(-1185.595 -97.188)"/><path class="d" d="M1514.492,92.122V85h-5.323v7.12H1505V75.84h4.166v6.768h5.324V75.84h4.188V92.122Z" transform="translate(-1351.062 -69.469)"/><path class="d" d="M1655.269,61.665a1.778,1.778,0,1,1,0-3.455,1.783,1.783,0,1,1,0,3.455Zm-1.989,14.672V63.582h4V76.338Z" transform="translate(-1483.627 -53.685)"/><path class="d" d="M1718.679,109.334a5.719,5.719,0,0,0-1.8-.284,3.947,3.947,0,0,0-1.491.237v10.555h-4V107.7a18.1,18.1,0,0,1,6.224-.9c.639,0,1.372.047,1.822.094Z" transform="translate(-1535.84 -97.188)"/><path class="d" d="M1788.827,114.7c.26,2.011,1.845,2.958,3.928,2.958a11.4,11.4,0,0,0,3.979-.733l.828,2.3a14.349,14.349,0,0,1-5.372.9c-4.59,0-7.36-2.438-7.36-6.744,0-4.141,2.6-6.579,6.84-6.579,4.283,0,6.387,2.461,6.387,6.673Zm2.626-5.8c-1.8,0-2.91,1.4-2.91,3.716v.284l5.631-.733C1794.174,110.042,1793.225,108.906,1791.453,108.906Z" transform="translate(-1601.59 -97.187)"/><path class="d" d="M1977.126,89.9a13.714,13.714,0,0,1-5.206-.9l.993-2.513a9.386,9.386,0,0,0,3.479.687c1.846,0,2.911-.733,2.911-2.036,0-3.052-6.981-2.224-6.981-7.289,0-2.816,2.461-4.8,6.271-4.8a10.938,10.938,0,0,1,4.615.9l-.922,2.343a7.027,7.027,0,0,0-3.125-.639c-1.675,0-2.722.71-2.722,1.916,0,3.076,7.288,1.893,7.288,7.289C1983.729,87.825,1981.078,89.9,1977.126,89.9Z" transform="translate(-1769.09 -66.972)"/><path class="d" d="M2091.99,91.164c-3.124,0-4.378-1.681-4.378-3.929V80.373h-1.822V78.148h1.822V75.4l4-.924v3.665h2.485V80.37h-2.485v6.911a1.4,1.4,0,0,0,1.585,1.4,2.462,2.462,0,0,0,.9-.141v2.271A5.521,5.521,0,0,1,2091.99,91.164Z" transform="translate(-1871.036 -68.252)"/><path class="d" d="M2178.5,120.106c-4.047,0-6.579-1.23-6.579-4,0-3.383,3.979-4.26,8.567-4.638v-.587c0-1.373-.994-1.87-2.746-1.87a12.144,12.144,0,0,0-4.045.733l-.853-2.059a16.114,16.114,0,0,1,5.445-.9c3.715,0,5.988,1.326,5.988,4.662v7.762A16.35,16.35,0,0,1,2178.5,120.106Zm1.99-7.005c-2.816.261-4.733.687-4.733,2.864,0,1.466,1.112,2.106,2.886,2.106a5.3,5.3,0,0,0,1.846-.284Z" transform="translate(-1948.148 -97.174)"/><path class="d" d="M2304.2,91.164c-3.124,0-4.378-1.681-4.378-3.929V80.373H2298V78.148h1.822V75.4l4-.924v3.665h2.485V80.37h-2.485v6.911a1.4,1.4,0,0,0,1.585,1.4,2.46,2.46,0,0,0,.9-.141v2.271A5.545,5.545,0,0,1,2304.2,91.164Z" transform="translate(-2061.026 -68.252)"/><path class="d" d="M2389.729,61.665a1.778,1.778,0,1,1,0-3.455,1.783,1.783,0,1,1,0,3.455Zm-1.989,14.672V63.582h4V76.338Z" transform="translate(-2141.182 -53.685)"/><path class="d" d="M2448.045,120.083c-4.307,0-6.745-2.793-6.745-6.673s2.438-6.65,6.745-6.65,6.744,2.769,6.744,6.65S2452.351,120.083,2448.045,120.083Zm0-11.122c-1.918,0-2.675,1.869-2.675,4.378s.757,4.378,2.675,4.378,2.674-1.87,2.674-4.378-.759-4.374-2.674-4.374Z" transform="translate(-2189.321 -97.152)"/><path class="d" d="M2591.278,119.84v-8.377c0-1.657-.877-2.408-2.6-2.408a5.948,5.948,0,0,0-1.865.28V119.84h-4V107.723a17.876,17.876,0,0,1,5.939-.922c4.166,0,6.532,1.4,6.532,4.686v8.354Z" transform="translate(-2316.013 -97.188)"/><path class="e" d="M75.434,51.144a4.411,4.411,0,0,1-4.41,4.411H39.29a4.41,4.41,0,0,1-4.41-4.411V19.417A4.41,4.41,0,0,1,39.29,15H71.018a4.411,4.411,0,0,1,4.41,4.41Z" transform="translate(-34.88 -15)"/><path class="f" d="M87.62,64.912a3.237,3.237,0,0,1-3.237,3.238H53.549a3.238,3.238,0,0,1-3.239-3.238V34.078a3.24,3.24,0,0,1,3.239-3.238H84.383a3.238,3.238,0,0,1,3.237,3.238Z" transform="translate(-48.694 -29.181)"/><path class="g" d="M69.881,49.914C87.493,46.249,87.62,34.078,87.62,34.078a3.239,3.239,0,0,0-3.238-3.238H53.549a3.24,3.24,0,0,0-3.239,3.238V64.912S50.4,53.975,69.881,49.914Z" transform="translate(-48.694 -29.181)"/><path class="h" d="M88.049,108.424h-3.52L78.64,92.28h4.481l2.84,9.621a17.2,17.2,0,0,1,.446,2.064h.047A18,18,0,0,1,86.9,101.9l2.908-9.621h4.06Z" transform="translate(-74.058 -84.188)"/><path class="h" d="M230.07,135.762a9.486,9.486,0,0,1-2.3-.235v5H223.83V123.442a14.187,14.187,0,0,1,5.536-.942c4.5,0,7.3,2.322,7.3,6.545C236.664,133.133,233.966,135.762,230.07,135.762Zm-.777-11.146a4.16,4.16,0,0,0-1.526.258v8.612a5.085,5.085,0,0,0,1.341.165c2.3,0,3.519-1.643,3.519-4.553S231.736,124.616,229.293,124.616Z" transform="translate(-204.045 -111.244)"/><path class="h" d="M285.3,291a3.985,3.985,0,0,1-.918-.11v1.835h-.723v-6.205a3.856,3.856,0,0,1,1.641-.314,2.151,2.151,0,0,1,2.372,2.319A2.261,2.261,0,0,1,285.3,291Zm-.034-4.377a2.054,2.054,0,0,0-.885.179v3.674a2.688,2.688,0,0,0,.765.1,1.76,1.76,0,0,0,1.793-2.006c0-1.205-.45-1.953-1.674-1.953Z" transform="translate(-257.61 -257.811)"/><path class="h" d="M328.47,273.97V267.3h.733v6.67Z" transform="translate(-297.728 -240.881)"/><path class="h" d="M343.994,290.994a2.168,2.168,0,0,1-2.094-2.408,2.145,2.145,0,0,1,2.115-2.4,2.035,2.035,0,0,1,1.216.314l-.179.412a1.558,1.558,0,0,0-.867-.248c-1.012,0-1.53.808-1.53,1.9,0,1.121.595,1.92,1.5,1.92a1.687,1.687,0,0,0,.883-.246l.2.442A2.148,2.148,0,0,1,343.994,290.994Z" transform="translate(-309.752 -257.793)"/></g></g></svg>