<svg xmlns="http://www.w3.org/2000/svg" width="25.5" height="25.5" viewBox="0 0 25.5 25.5"><defs><style>.a{fill:#fff;}</style></defs><path class="a" d="M17.531,0H7.969A7.97,7.97,0,0,0,0,7.969v9.563A7.97,7.97,0,0,0,7.969,25.5h9.563A7.97,7.97,0,0,0,25.5,17.531V7.969A7.97,7.97,0,0,0,17.531,0Zm5.578,17.531a5.584,5.584,0,0,1-5.578,5.578H7.969a5.584,5.584,0,0,1-5.578-5.578V7.969A5.584,5.584,0,0,1,7.969,2.391h9.563a5.584,5.584,0,0,1,5.578,5.578Z"/><g transform="translate(6.375 6.375)"><path class="a" d="M134.375,128a6.375,6.375,0,1,0,6.375,6.375A6.375,6.375,0,0,0,134.375,128Zm0,10.359a3.984,3.984,0,1,1,3.984-3.984A3.99,3.99,0,0,1,134.375,138.359Z" transform="translate(-128 -128)"/></g><g transform="translate(18.754 5.047)"><circle class="a" cx="0.849" cy="0.849" r="0.849"/></g></svg>