<svg xmlns="http://www.w3.org/2000/svg" width="16.251" height="21.663" viewBox="0 0 16.251 21.663"><defs><style>.a{fill:#3d3c3e;}</style></defs><path class="a" d="M15.124,23.663a.9.9,0,0,1-.6-.226C14.221,23.167,7,16.776,7,10.467A8.313,8.313,0,0,1,15.124,2a8.313,8.313,0,0,1,8.124,8.467c0,6.318-7.221,12.7-7.528,12.971A.9.9,0,0,1,15.124,23.663Zm0-19.858a6.508,6.508,0,0,0-6.319,6.661c0,4.513,4.64,9.433,6.319,11.057,1.679-1.625,6.319-6.535,6.319-11.057a6.508,6.508,0,0,0-6.319-6.661Z" transform="translate(-6.998 -2)"/><path class="a" d="M15.611,14.221a3.611,3.611,0,1,1,3.611-3.611A3.611,3.611,0,0,1,15.611,14.221Zm0-5.416a1.805,1.805,0,1,0,1.805,1.805A1.805,1.805,0,0,0,15.611,8.805Z" transform="translate(-7.485 -2.486)"/></svg>