<svg xmlns="http://www.w3.org/2000/svg" width="16.953" height="16.953" viewBox="0 0 16.953 16.953">
  <defs><style>.a{fill:#003e7e;}</style></defs>
  <path class="a" d="M18.645,16.95l-4.007-4.007a6.869,6.869,0,0,0,1.233-4.007,6.935,6.935,0,1,0-6.935,6.935,6.869,6.869,0,0,0,4.007-1.233l4.007,4.007a1.177,1.177,0,0,0,.771.308,1.216,1.216,0,0,0,1.233-1.233A1.177,1.177,0,0,0,18.645,16.95Zm-9.71-3.391A4.541,4.541,0,0,1,4.312,8.935,4.541,4.541,0,0,1,8.935,4.312a4.541,4.541,0,0,1,4.624,4.624A4.541,4.541,0,0,1,8.935,13.559Z" transform="translate(-2 -2)"/>
</svg>