<svg xmlns="http://www.w3.org/2000/svg" width="27.839" height="22.621" viewBox="0 0 27.839 22.621"><defs><style>.a{fill:none;}.b{fill:#fff;}</style></defs><g transform="translate(0 -47.987)"><rect class="a" width="21.749" height="21.749" transform="translate(3.045 48.423)"/><path class="b" d="M8.755,70.607c10.505,0,16.251-8.7,16.251-16.251,0-.247,0-.493-.017-.738a11.621,11.621,0,0,0,2.85-2.956,11.4,11.4,0,0,1-3.281.9A5.732,5.732,0,0,0,27.069,48.4a11.448,11.448,0,0,1-3.627,1.386A5.717,5.717,0,0,0,13.709,55,16.223,16.223,0,0,1,1.938,49.029a5.739,5.739,0,0,0,1.768,7.624,5.669,5.669,0,0,1-2.592-.715v.072A5.73,5.73,0,0,0,5.7,61.61a5.7,5.7,0,0,1-2.579.1,5.73,5.73,0,0,0,5.336,3.966,11.463,11.463,0,0,1-7.093,2.45A11.62,11.62,0,0,1,0,68.042,16.172,16.172,0,0,0,8.755,70.6" transform="translate(0 0)"/></g></svg>