<svg xmlns="http://www.w3.org/2000/svg" width="20.557" height="22.663" viewBox="0 0 20.557 22.663"><defs><style>.a{fill:#3d3c3e;stroke:rgba(0,0,0,0);stroke-miterlimit:10;}</style></defs><g transform="translate(0.5 0.5)"><path class="a" d="M74.171,10A5.2,5.2,0,1,1,69,15.171,5.192,5.192,0,0,1,74.171,10Zm0,2.121a3.083,3.083,0,1,0,3.05,3.05A3.041,3.041,0,0,0,74.171,12.121Z" transform="translate(-64.426 -10)"/><path class="a" d="M5.635,176h8.287a5.673,5.673,0,0,1,5.635,5.635v3.978a1.1,1.1,0,0,1-2.188,0v-3.978a3.48,3.48,0,0,0-3.447-3.514H5.635a3.537,3.537,0,0,0-3.514,3.514v3.978a1.061,1.061,0,0,1-2.121,0v-3.978A5.63,5.63,0,0,1,5.635,176Z" transform="translate(0 -164.994)"/><rect class="a" width="19.557" height="2.173" rx="1.086" transform="translate(0 19.488)"/></g></svg>