<svg xmlns="http://www.w3.org/2000/svg" width="28" height="20.4" viewBox="0 0 28 20.4"><defs><style>.a{fill:#fff;}</style></defs><g transform="translate(164 -394.801)"><path class="a" d="M20387,13161.2c-.021,0-2.217,0-4.65-.076-1.428-.045-2.662-.105-3.656-.182a15.675,15.675,0,0,1-2.633-.352,3.581,3.581,0,0,1-2.475-2.576,14.944,14.944,0,0,1-.34-2.055c-.072-.678-.131-1.451-.172-2.307-.074-1.449-.074-2.643-.074-2.654s0-1.2.074-2.654c.041-.854.1-1.629.172-2.3a14.892,14.892,0,0,1,.34-2.055,3.577,3.577,0,0,1,2.475-2.576,15.621,15.621,0,0,1,2.633-.354c1-.074,2.229-.135,3.656-.18,2.434-.076,4.629-.076,4.65-.076s2.219,0,4.652.076c1.428.045,2.658.105,3.656.18a15.652,15.652,0,0,1,2.633.354,3.571,3.571,0,0,1,2.473,2.576,14.65,14.65,0,0,1,.34,2.055c.074.674.131,1.451.174,2.3.072,1.451.072,2.645.072,2.654s0,1.205-.072,2.654c-.043.855-.1,1.631-.174,2.307a14.7,14.7,0,0,1-.34,2.055,3.575,3.575,0,0,1-2.473,2.576,15.707,15.707,0,0,1-2.633.352c-1,.076-2.229.137-3.656.182C20389.219,13161.2,20387.023,13161.2,20387,13161.2Zm-2.8-14.572h0v8.744l7.277-4.373-7.277-4.371Z" transform="translate(-20537 -12746)"/></g></svg>